<mxfile host="app.diagrams.net" modified="2023-09-02T04:03:15.941Z" agent="Mozilla/5.0 (Macintosh; Intel Mac OS X 10_15_7) AppleWebKit/537.36 (KHTML, like Gecko) Chrome/116.0.0.0 Safari/537.36" etag="SZl-XWbYysBuXhbCsBXD" version="21.7.1" type="github">
  <diagram name="Page-1" id="kltpETyp6ktUoRGK4CSb">
    <mxGraphModel dx="1341" dy="791" grid="1" gridSize="10" guides="1" tooltips="1" connect="1" arrows="1" fold="1" page="1" pageScale="1" pageWidth="827" pageHeight="1169" math="0" shadow="0">
      <root>
        <mxCell id="0" />
        <mxCell id="1" parent="0" />
        <mxCell id="waHBwddkoe4MKuM2ABax-2" value="" style="rounded=0;whiteSpace=wrap;html=1;sketch=1;hachureGap=4;jiggle=2;curveFitting=1;fontFamily=Architects Daughter;fontSource=https%3A%2F%2Ffonts.googleapis.com%2Fcss%3Ffamily%3DArchitects%2BDaughter;fontSize=20;fillColor=#d5e8d4;strokeColor=#82b366;" vertex="1" parent="1">
          <mxGeometry y="110" width="340" height="320" as="geometry" />
        </mxCell>
        <mxCell id="waHBwddkoe4MKuM2ABax-6" style="edgeStyle=orthogonalEdgeStyle;rounded=0;sketch=1;hachureGap=4;jiggle=2;curveFitting=1;orthogonalLoop=1;jettySize=auto;html=1;exitX=1;exitY=0.5;exitDx=0;exitDy=0;entryX=0;entryY=0.5;entryDx=0;entryDy=0;fontFamily=Architects Daughter;fontSource=https%3A%2F%2Ffonts.googleapis.com%2Fcss%3Ffamily%3DArchitects%2BDaughter;fontSize=16;" edge="1" parent="1" source="waHBwddkoe4MKuM2ABax-3" target="waHBwddkoe4MKuM2ABax-4">
          <mxGeometry relative="1" as="geometry" />
        </mxCell>
        <mxCell id="waHBwddkoe4MKuM2ABax-3" value="&lt;font face=&quot;Comic Sans MS&quot;&gt;&lt;font color=&quot;#ff8000&quot;&gt;import a from &#39;./a.js&#39;&lt;/font&gt;&lt;br&gt;&lt;br&gt;&lt;font color=&quot;#3399ff&quot;&gt;import { b } from &#39;./b.js&#39;&lt;/font&gt;&lt;br&gt;&lt;br&gt;&lt;font color=&quot;#ff3333&quot;&gt;import * as c from &#39;./c.js&#39;&lt;/font&gt;&lt;br&gt;&lt;br&gt;&lt;font color=&quot;#00cc00&quot;&gt;import &#39;./d.js&#39;&lt;br&gt;&lt;/font&gt;&lt;br&gt;&lt;font color=&quot;#b266ff&quot;&gt;import(&#39;./e.js&#39;).then(module =&amp;gt; {&lt;br&gt;&amp;nbsp; &amp;nbsp; ...&lt;br&gt;})&lt;/font&gt;&lt;br&gt;&lt;/font&gt;" style="text;html=1;strokeColor=none;fillColor=none;align=left;verticalAlign=middle;whiteSpace=wrap;rounded=0;fontSize=20;fontFamily=Architects Daughter;" vertex="1" parent="1">
          <mxGeometry x="10" y="120" width="340" height="300" as="geometry" />
        </mxCell>
        <mxCell id="waHBwddkoe4MKuM2ABax-4" value="" style="rounded=0;whiteSpace=wrap;html=1;sketch=1;hachureGap=4;jiggle=2;curveFitting=1;fontFamily=Architects Daughter;fontSource=https%3A%2F%2Ffonts.googleapis.com%2Fcss%3Ffamily%3DArchitects%2BDaughter;fontSize=20;fillColor=#d5e8d4;strokeColor=#82b366;" vertex="1" parent="1">
          <mxGeometry x="460" y="110" width="600" height="320" as="geometry" />
        </mxCell>
        <mxCell id="waHBwddkoe4MKuM2ABax-5" value="&lt;font face=&quot;Comic Sans MS&quot;&gt;&lt;font color=&quot;#ff8000&quot;&gt;const a = window.__modules__[&#39;a.js&#39;].__default__&lt;/font&gt;&lt;br&gt;&lt;br&gt;&lt;font color=&quot;#3399ff&quot;&gt;const b = window.__modules__[&#39;b.js&#39;].b&lt;/font&gt;&lt;br&gt;&lt;br&gt;&lt;font color=&quot;#ff3333&quot;&gt;const c = window.__modules__[&#39;c.js&#39;]&lt;/font&gt;&lt;br&gt;&lt;br&gt;&lt;font color=&quot;#00cc00&quot;&gt;&amp;nbsp;&lt;br&gt;&lt;/font&gt;&lt;br&gt;&lt;font color=&quot;#b266ff&quot;&gt;Promise.resolve(window.__modules__[&#39;e.js&#39;]).then(module =&amp;gt; {&lt;br&gt;&amp;nbsp; &amp;nbsp; ...&lt;br&gt;})&lt;/font&gt;&lt;br&gt;&lt;/font&gt;" style="text;html=1;strokeColor=none;fillColor=none;align=left;verticalAlign=middle;whiteSpace=wrap;rounded=0;fontSize=20;fontFamily=Architects Daughter;" vertex="1" parent="1">
          <mxGeometry x="470" y="120" width="580" height="300" as="geometry" />
        </mxCell>
      </root>
    </mxGraphModel>
  </diagram>
</mxfile>
